<svg width="159" height="193" viewBox="0 0 159 193" fill="none" xmlns="http://www.w3.org/2000/svg">
<path d="M104.576 11.7705C101.883 14.4632 97.5178 14.4632 94.8251 11.7705C92.1325 9.07784 92.1325 4.71217 94.8251 2.0195C97.5178 -0.673166 101.883 -0.673166 104.576 2.0195C107.269 4.71217 107.269 9.07784 104.576 11.7705Z" fill="url(#paint0_linear)"/>
<path d="M123.137 30.3316C120.445 33.0243 116.079 33.0243 113.386 30.3316C110.694 27.639 110.694 23.2733 113.386 20.5806C116.079 17.888 120.445 17.888 123.137 20.5806C125.83 23.2733 125.83 27.639 123.137 30.3316Z" fill="url(#paint1_linear)"/>
<path d="M142.297 49.4915C139.604 52.1842 135.239 52.1842 132.546 49.4915C129.853 46.7988 129.853 42.4332 132.546 39.7405C135.239 37.0478 139.604 37.0478 142.297 39.7405C144.99 42.4332 144.99 46.7988 142.297 49.4915Z" fill="url(#paint2_linear)"/>
<path d="M86.015 30.3316C83.3223 33.0243 78.9567 33.0243 76.264 30.3316C73.5713 27.639 73.5713 23.2733 76.264 20.5806C78.9567 17.888 83.3223 17.888 86.015 20.5806C88.7077 23.2733 88.7077 27.639 86.015 30.3316Z" fill="url(#paint3_linear)"/>
<path d="M104.576 48.8928C101.883 51.5854 97.5178 51.5854 94.8251 48.8928C92.1325 46.2001 92.1325 41.8344 94.8251 39.1418C97.5178 36.4491 101.883 36.4491 104.576 39.1418C107.269 41.8344 107.269 46.2001 104.576 48.8928Z" fill="url(#paint4_linear)"/>
<path d="M123.736 68.0526C121.043 70.7453 116.678 70.7453 113.985 68.0526C111.292 65.36 111.292 60.9943 113.985 58.3016C116.678 55.609 121.043 55.609 123.736 58.3016C126.429 60.9943 126.429 65.36 123.736 68.0526Z" fill="url(#paint5_linear)"/>
<path d="M67.4539 48.8928C64.7612 51.5854 60.3955 51.5854 57.7029 48.8928C55.0102 46.2001 55.0102 41.8344 57.7029 39.1418C60.3955 36.4491 64.7612 36.4491 67.4539 39.1418C70.1465 41.8344 70.1465 46.2001 67.4539 48.8928Z" fill="url(#paint6_linear)"/>
<path d="M86.015 67.4539C83.3223 70.1465 78.9567 70.1465 76.264 67.4539C73.5713 64.7612 73.5713 60.3955 76.264 57.7029C78.9567 55.0102 83.3223 55.0102 86.015 57.7029C88.7077 60.3955 88.7077 64.7612 86.015 67.4539Z" fill="url(#paint7_linear)"/>
<path d="M105.175 86.6137C102.482 89.3064 98.1165 89.3064 95.4239 86.6137C92.7312 83.9211 92.7312 79.5554 95.4239 76.8627C98.1165 74.1701 102.482 74.1701 105.175 76.8627C107.868 79.5554 107.868 83.9211 105.175 86.6137Z" fill="url(#paint8_linear)"/>
<path d="M160.858 68.0526C158.166 70.7453 153.8 70.7453 151.107 68.0526C148.415 65.36 148.415 60.9943 151.107 58.3016C153.8 55.609 158.166 55.609 160.858 58.3016C163.551 60.9943 163.551 65.36 160.858 68.0526Z" fill="url(#paint9_linear)"/>
<path d="M179.419 86.6137C176.727 89.3064 172.361 89.3064 169.668 86.6137C166.976 83.9211 166.976 79.5554 169.668 76.8627C172.361 74.1701 176.727 74.1701 179.419 76.8627C182.112 79.5554 182.112 83.9211 179.419 86.6137Z" fill="url(#paint10_linear)"/>
<path d="M197.98 105.175C195.288 107.868 190.922 107.868 188.229 105.175C185.537 102.482 185.537 98.1165 188.229 95.4239C190.922 92.7312 195.288 92.7312 197.98 95.4239C200.673 98.1165 200.673 102.482 197.98 105.175Z" fill="url(#paint11_linear)"/>
<path d="M142.297 86.6137C139.604 89.3064 135.239 89.3064 132.546 86.6137C129.853 83.9211 129.853 79.5554 132.546 76.8627C135.239 74.1701 139.604 74.1701 142.297 76.8627C144.99 79.5554 144.99 83.9211 142.297 86.6137Z" fill="url(#paint12_linear)"/>
<path d="M160.858 105.175C158.166 107.868 153.8 107.868 151.107 105.175C148.415 102.482 148.415 98.1165 151.107 95.4239C153.8 92.7312 158.166 92.7312 160.858 95.4239C163.551 98.1165 163.551 102.482 160.858 105.175Z" fill="url(#paint13_linear)"/>
<path d="M179.419 123.736C176.727 126.429 172.361 126.429 169.668 123.736C166.976 121.043 166.976 116.678 169.668 113.985C172.361 111.292 176.727 111.292 179.419 113.985C182.112 116.678 182.112 121.043 179.419 123.736Z" fill="url(#paint14_linear)"/>
<path d="M123.736 105.175C121.043 107.868 116.678 107.868 113.985 105.175C111.292 102.482 111.292 98.1165 113.985 95.4239C116.678 92.7312 121.043 92.7312 123.736 95.4239C126.429 98.1165 126.429 102.482 123.736 105.175Z" fill="url(#paint15_linear)"/>
<path d="M142.297 123.736C139.604 126.429 135.239 126.429 132.546 123.736C129.853 121.043 129.853 116.678 132.546 113.985C135.239 111.292 139.604 111.292 142.297 113.985C144.99 116.678 144.99 121.043 142.297 123.736Z" fill="url(#paint16_linear)"/>
<path d="M160.858 142.297C158.166 144.99 153.8 144.99 151.107 142.297C148.415 139.604 148.415 135.239 151.107 132.546C153.8 129.853 158.166 129.853 160.858 132.546C163.551 135.239 163.551 139.604 160.858 142.297Z" fill="url(#paint17_linear)"/>
<path d="M48.8928 67.4539C46.2001 70.1465 41.8344 70.1465 39.1418 67.4539C36.4491 64.7612 36.4491 60.3955 39.1418 57.7029C41.8344 55.0102 46.2001 55.0102 48.8928 57.7029C51.5854 60.3955 51.5854 64.7612 48.8928 67.4539Z" fill="url(#paint18_linear)"/>
<path d="M67.4539 86.015C64.7612 88.7077 60.3955 88.7077 57.7029 86.015C55.0102 83.3223 55.0102 78.9567 57.7029 76.264C60.3955 73.5713 64.7612 73.5713 67.4539 76.264C70.1465 78.9567 70.1465 83.3223 67.4539 86.015Z" fill="url(#paint19_linear)"/>
<path d="M86.6137 105.175C83.9211 107.868 79.5554 107.868 76.8627 105.175C74.1701 102.482 74.1701 98.1165 76.8627 95.4239C79.5554 92.7312 83.9211 92.7312 86.6137 95.4239C89.3064 98.1165 89.3064 102.482 86.6137 105.175Z" fill="url(#paint20_linear)"/>
<path d="M30.3316 86.015C27.639 88.7077 23.2733 88.7077 20.5806 86.015C17.888 83.3223 17.888 78.9567 20.5806 76.264C23.2733 73.5713 27.639 73.5713 30.3316 76.264C33.0243 78.9567 33.0243 83.3223 30.3316 86.015Z" fill="url(#paint21_linear)"/>
<path d="M48.8928 104.576C46.2001 107.269 41.8344 107.269 39.1418 104.576C36.4491 101.883 36.4491 97.5178 39.1418 94.8251C41.8344 92.1325 46.2001 92.1325 48.8928 94.8251C51.5854 97.5178 51.5854 101.883 48.8928 104.576Z" fill="url(#paint22_linear)"/>
<path d="M68.0526 123.736C65.36 126.429 60.9943 126.429 58.3016 123.736C55.609 121.043 55.609 116.678 58.3016 113.985C60.9943 111.292 65.36 111.292 68.0526 113.985C70.7453 116.678 70.7453 121.043 68.0526 123.736Z" fill="url(#paint23_linear)"/>
<path d="M11.7705 104.576C9.07784 107.269 4.71217 107.269 2.0195 104.576C-0.673166 101.883 -0.673166 97.5178 2.0195 94.8251C4.71217 92.1325 9.07784 92.1325 11.7705 94.8251C14.4632 97.5178 14.4632 101.883 11.7705 104.576Z" fill="url(#paint24_linear)"/>
<path d="M30.3316 123.137C27.639 125.83 23.2733 125.83 20.5806 123.137C17.888 120.445 17.888 116.079 20.5806 113.386C23.2733 110.694 27.639 110.694 30.3316 113.386C33.0243 116.079 33.0243 120.445 30.3316 123.137Z" fill="url(#paint25_linear)"/>
<path d="M49.4915 142.297C46.7988 144.99 42.4332 144.99 39.7405 142.297C37.0478 139.604 37.0478 135.239 39.7405 132.546C42.4332 129.853 46.7988 129.853 49.4915 132.546C52.1842 135.239 52.1842 139.604 49.4915 142.297Z" fill="url(#paint26_linear)"/>
<path d="M105.175 123.736C102.482 126.429 98.1165 126.429 95.4239 123.736C92.7312 121.043 92.7312 116.678 95.4239 113.985C98.1165 111.292 102.482 111.292 105.175 113.985C107.868 116.678 107.868 121.043 105.175 123.736Z" fill="url(#paint27_linear)"/>
<path d="M123.736 142.297C121.043 144.99 116.678 144.99 113.985 142.297C111.292 139.604 111.292 135.239 113.985 132.546C116.678 129.853 121.043 129.853 123.736 132.546C126.429 135.239 126.429 139.604 123.736 142.297Z" fill="url(#paint28_linear)"/>
<path d="M142.297 160.858C139.604 163.551 135.239 163.551 132.546 160.858C129.853 158.166 129.853 153.8 132.546 151.107C135.239 148.415 139.604 148.415 142.297 151.107C144.99 153.8 144.99 158.166 142.297 160.858Z" fill="url(#paint29_linear)"/>
<path d="M86.6137 142.297C83.9211 144.99 79.5554 144.99 76.8627 142.297C74.1701 139.604 74.1701 135.239 76.8627 132.546C79.5554 129.853 83.9211 129.853 86.6137 132.546C89.3064 135.239 89.3064 139.604 86.6137 142.297Z" fill="url(#paint30_linear)"/>
<path d="M105.175 160.858C102.482 163.551 98.1165 163.551 95.4239 160.858C92.7312 158.166 92.7312 153.8 95.4239 151.107C98.1165 148.415 102.482 148.415 105.175 151.107C107.868 153.8 107.868 158.166 105.175 160.858Z" fill="url(#paint31_linear)"/>
<path d="M123.736 179.419C121.043 182.112 116.678 182.112 113.985 179.419C111.292 176.727 111.292 172.361 113.985 169.668C116.678 166.976 121.043 166.976 123.736 169.668C126.429 172.361 126.429 176.727 123.736 179.419Z" fill="url(#paint32_linear)"/>
<path d="M68.0526 160.858C65.36 163.551 60.9943 163.551 58.3016 160.858C55.609 158.166 55.609 153.8 58.3016 151.107C60.9943 148.415 65.36 148.415 68.0526 151.107C70.7453 153.8 70.7453 158.166 68.0526 160.858Z" fill="url(#paint33_linear)"/>
<path d="M86.6137 179.419C83.9211 182.112 79.5554 182.112 76.8627 179.419C74.1701 176.727 74.1701 172.361 76.8627 169.668C79.5554 166.976 83.9211 166.976 86.6137 169.668C89.3064 172.361 89.3064 176.727 86.6137 179.419Z" fill="url(#paint34_linear)"/>
<path d="M105.175 197.98C102.482 200.673 98.1165 200.673 95.4239 197.98C92.7312 195.288 92.7312 190.922 95.4239 188.229C98.1165 185.537 102.482 185.537 105.175 188.229C107.868 190.922 107.868 195.288 105.175 197.98Z" fill="url(#paint35_linear)"/>
<defs>
<linearGradient id="paint0_linear" x1="99.9655" y1="-0.219543" x2="99.9655" y2="200.151" gradientUnits="userSpaceOnUse">
<stop stop-color="white" stop-opacity="0.2"/>
<stop offset="1" stop-color="white" stop-opacity="0"/>
</linearGradient>
<linearGradient id="paint1_linear" x1="99.9655" y1="-0.219543" x2="99.9655" y2="200.151" gradientUnits="userSpaceOnUse">
<stop stop-color="white" stop-opacity="0.2"/>
<stop offset="1" stop-color="white" stop-opacity="0"/>
</linearGradient>
<linearGradient id="paint2_linear" x1="99.9655" y1="-0.219543" x2="99.9655" y2="200.151" gradientUnits="userSpaceOnUse">
<stop stop-color="white" stop-opacity="0.2"/>
<stop offset="1" stop-color="white" stop-opacity="0"/>
</linearGradient>
<linearGradient id="paint3_linear" x1="99.9655" y1="-0.219543" x2="99.9655" y2="200.151" gradientUnits="userSpaceOnUse">
<stop stop-color="white" stop-opacity="0.2"/>
<stop offset="1" stop-color="white" stop-opacity="0"/>
</linearGradient>
<linearGradient id="paint4_linear" x1="99.9655" y1="-0.219543" x2="99.9655" y2="200.151" gradientUnits="userSpaceOnUse">
<stop stop-color="white" stop-opacity="0.2"/>
<stop offset="1" stop-color="white" stop-opacity="0"/>
</linearGradient>
<linearGradient id="paint5_linear" x1="99.9655" y1="-0.219543" x2="99.9655" y2="200.151" gradientUnits="userSpaceOnUse">
<stop stop-color="white" stop-opacity="0.2"/>
<stop offset="1" stop-color="white" stop-opacity="0"/>
</linearGradient>
<linearGradient id="paint6_linear" x1="99.9655" y1="-0.219543" x2="99.9655" y2="200.151" gradientUnits="userSpaceOnUse">
<stop stop-color="white" stop-opacity="0.2"/>
<stop offset="1" stop-color="white" stop-opacity="0"/>
</linearGradient>
<linearGradient id="paint7_linear" x1="99.9655" y1="-0.219543" x2="99.9655" y2="200.151" gradientUnits="userSpaceOnUse">
<stop stop-color="white" stop-opacity="0.2"/>
<stop offset="1" stop-color="white" stop-opacity="0"/>
</linearGradient>
<linearGradient id="paint8_linear" x1="99.9655" y1="-0.219543" x2="99.9655" y2="200.151" gradientUnits="userSpaceOnUse">
<stop stop-color="white" stop-opacity="0.2"/>
<stop offset="1" stop-color="white" stop-opacity="0"/>
</linearGradient>
<linearGradient id="paint9_linear" x1="99.9655" y1="-0.219543" x2="99.9655" y2="200.151" gradientUnits="userSpaceOnUse">
<stop stop-color="white" stop-opacity="0.2"/>
<stop offset="1" stop-color="white" stop-opacity="0"/>
</linearGradient>
<linearGradient id="paint10_linear" x1="99.9655" y1="-0.219543" x2="99.9655" y2="200.151" gradientUnits="userSpaceOnUse">
<stop stop-color="white" stop-opacity="0.2"/>
<stop offset="1" stop-color="white" stop-opacity="0"/>
</linearGradient>
<linearGradient id="paint11_linear" x1="99.9655" y1="-0.219543" x2="99.9655" y2="200.151" gradientUnits="userSpaceOnUse">
<stop stop-color="white" stop-opacity="0.2"/>
<stop offset="1" stop-color="white" stop-opacity="0"/>
</linearGradient>
<linearGradient id="paint12_linear" x1="99.9655" y1="-0.219543" x2="99.9655" y2="200.151" gradientUnits="userSpaceOnUse">
<stop stop-color="white" stop-opacity="0.2"/>
<stop offset="1" stop-color="white" stop-opacity="0"/>
</linearGradient>
<linearGradient id="paint13_linear" x1="99.9655" y1="-0.219543" x2="99.9655" y2="200.151" gradientUnits="userSpaceOnUse">
<stop stop-color="white" stop-opacity="0.2"/>
<stop offset="1" stop-color="white" stop-opacity="0"/>
</linearGradient>
<linearGradient id="paint14_linear" x1="99.9655" y1="-0.219543" x2="99.9655" y2="200.151" gradientUnits="userSpaceOnUse">
<stop stop-color="white" stop-opacity="0.2"/>
<stop offset="1" stop-color="white" stop-opacity="0"/>
</linearGradient>
<linearGradient id="paint15_linear" x1="99.9655" y1="-0.219543" x2="99.9655" y2="200.151" gradientUnits="userSpaceOnUse">
<stop stop-color="white" stop-opacity="0.2"/>
<stop offset="1" stop-color="white" stop-opacity="0"/>
</linearGradient>
<linearGradient id="paint16_linear" x1="99.9655" y1="-0.219543" x2="99.9655" y2="200.151" gradientUnits="userSpaceOnUse">
<stop stop-color="white" stop-opacity="0.2"/>
<stop offset="1" stop-color="white" stop-opacity="0"/>
</linearGradient>
<linearGradient id="paint17_linear" x1="99.9655" y1="-0.219543" x2="99.9655" y2="200.151" gradientUnits="userSpaceOnUse">
<stop stop-color="white" stop-opacity="0.2"/>
<stop offset="1" stop-color="white" stop-opacity="0"/>
</linearGradient>
<linearGradient id="paint18_linear" x1="99.9655" y1="-0.219543" x2="99.9655" y2="200.151" gradientUnits="userSpaceOnUse">
<stop stop-color="white" stop-opacity="0.2"/>
<stop offset="1" stop-color="white" stop-opacity="0"/>
</linearGradient>
<linearGradient id="paint19_linear" x1="99.9655" y1="-0.219543" x2="99.9655" y2="200.151" gradientUnits="userSpaceOnUse">
<stop stop-color="white" stop-opacity="0.2"/>
<stop offset="1" stop-color="white" stop-opacity="0"/>
</linearGradient>
<linearGradient id="paint20_linear" x1="99.9655" y1="-0.219543" x2="99.9655" y2="200.151" gradientUnits="userSpaceOnUse">
<stop stop-color="white" stop-opacity="0.2"/>
<stop offset="1" stop-color="white" stop-opacity="0"/>
</linearGradient>
<linearGradient id="paint21_linear" x1="99.9655" y1="-0.219543" x2="99.9655" y2="200.151" gradientUnits="userSpaceOnUse">
<stop stop-color="white" stop-opacity="0.2"/>
<stop offset="1" stop-color="white" stop-opacity="0"/>
</linearGradient>
<linearGradient id="paint22_linear" x1="99.9655" y1="-0.219543" x2="99.9655" y2="200.151" gradientUnits="userSpaceOnUse">
<stop stop-color="white" stop-opacity="0.2"/>
<stop offset="1" stop-color="white" stop-opacity="0"/>
</linearGradient>
<linearGradient id="paint23_linear" x1="99.9655" y1="-0.219543" x2="99.9655" y2="200.151" gradientUnits="userSpaceOnUse">
<stop stop-color="white" stop-opacity="0.2"/>
<stop offset="1" stop-color="white" stop-opacity="0"/>
</linearGradient>
<linearGradient id="paint24_linear" x1="99.9655" y1="-0.219543" x2="99.9655" y2="200.151" gradientUnits="userSpaceOnUse">
<stop stop-color="white" stop-opacity="0.2"/>
<stop offset="1" stop-color="white" stop-opacity="0"/>
</linearGradient>
<linearGradient id="paint25_linear" x1="99.9655" y1="-0.219543" x2="99.9655" y2="200.151" gradientUnits="userSpaceOnUse">
<stop stop-color="white" stop-opacity="0.2"/>
<stop offset="1" stop-color="white" stop-opacity="0"/>
</linearGradient>
<linearGradient id="paint26_linear" x1="99.9655" y1="-0.219543" x2="99.9655" y2="200.151" gradientUnits="userSpaceOnUse">
<stop stop-color="white" stop-opacity="0.2"/>
<stop offset="1" stop-color="white" stop-opacity="0"/>
</linearGradient>
<linearGradient id="paint27_linear" x1="99.9655" y1="-0.219543" x2="99.9655" y2="200.151" gradientUnits="userSpaceOnUse">
<stop stop-color="white" stop-opacity="0.2"/>
<stop offset="1" stop-color="white" stop-opacity="0"/>
</linearGradient>
<linearGradient id="paint28_linear" x1="99.9655" y1="-0.219543" x2="99.9655" y2="200.151" gradientUnits="userSpaceOnUse">
<stop stop-color="white" stop-opacity="0.2"/>
<stop offset="1" stop-color="white" stop-opacity="0"/>
</linearGradient>
<linearGradient id="paint29_linear" x1="99.9655" y1="-0.219543" x2="99.9655" y2="200.151" gradientUnits="userSpaceOnUse">
<stop stop-color="white" stop-opacity="0.2"/>
<stop offset="1" stop-color="white" stop-opacity="0"/>
</linearGradient>
<linearGradient id="paint30_linear" x1="99.9655" y1="-0.219543" x2="99.9655" y2="200.151" gradientUnits="userSpaceOnUse">
<stop stop-color="white" stop-opacity="0.2"/>
<stop offset="1" stop-color="white" stop-opacity="0"/>
</linearGradient>
<linearGradient id="paint31_linear" x1="99.9655" y1="-0.219543" x2="99.9655" y2="200.151" gradientUnits="userSpaceOnUse">
<stop stop-color="white" stop-opacity="0.2"/>
<stop offset="1" stop-color="white" stop-opacity="0"/>
</linearGradient>
<linearGradient id="paint32_linear" x1="99.9655" y1="-0.219543" x2="99.9655" y2="200.151" gradientUnits="userSpaceOnUse">
<stop stop-color="white" stop-opacity="0.2"/>
<stop offset="1" stop-color="white" stop-opacity="0"/>
</linearGradient>
<linearGradient id="paint33_linear" x1="99.9655" y1="-0.219543" x2="99.9655" y2="200.151" gradientUnits="userSpaceOnUse">
<stop stop-color="white" stop-opacity="0.2"/>
<stop offset="1" stop-color="white" stop-opacity="0"/>
</linearGradient>
<linearGradient id="paint34_linear" x1="99.9655" y1="-0.219543" x2="99.9655" y2="200.151" gradientUnits="userSpaceOnUse">
<stop stop-color="white" stop-opacity="0.2"/>
<stop offset="1" stop-color="white" stop-opacity="0"/>
</linearGradient>
<linearGradient id="paint35_linear" x1="99.9655" y1="-0.219543" x2="99.9655" y2="200.151" gradientUnits="userSpaceOnUse">
<stop stop-color="white" stop-opacity="0.2"/>
<stop offset="1" stop-color="white" stop-opacity="0"/>
</linearGradient>
</defs>
</svg>
