<svg width="796" height="911" viewBox="0 0 796 911" fill="none" xmlns="http://www.w3.org/2000/svg">
<path d="M654.993 26.7871C648.865 32.9151 638.93 32.9151 632.802 26.7871C626.674 20.6592 626.674 10.7239 632.802 4.59595C638.93 -1.53198 648.865 -1.53198 654.993 4.59595C661.121 10.7239 661.121 20.6592 654.993 26.7871Z" fill="url(#paint0_linear)"/>
<path d="M697.234 69.0283C691.106 75.1562 681.171 75.1562 675.043 69.0283C668.915 62.9003 668.915 52.965 675.043 46.8371C681.171 40.7091 691.106 40.7091 697.234 46.8371C703.362 52.965 703.362 62.9003 697.234 69.0283Z" fill="url(#paint1_linear)"/>
<path d="M740.838 112.632C734.71 118.76 724.774 118.76 718.646 112.632C712.519 106.504 712.519 96.5687 718.646 90.4408C724.774 84.3129 734.71 84.3129 740.838 90.4408C746.966 96.5687 746.966 106.504 740.838 112.632Z" fill="url(#paint2_linear)"/>
<path d="M612.752 69.0283C606.624 75.1562 596.688 75.1562 590.56 69.0283C584.433 62.9003 584.433 52.965 590.56 46.8371C596.688 40.7091 606.624 40.7091 612.752 46.8371C618.88 52.965 618.88 62.9003 612.752 69.0283Z" fill="url(#paint3_linear)"/>
<path d="M654.993 111.269C648.865 117.397 638.93 117.397 632.802 111.269C626.674 105.141 626.674 95.2061 632.802 89.0782C638.93 82.9503 648.865 82.9503 654.993 89.0782C661.121 95.2061 661.121 105.141 654.993 111.269Z" fill="url(#paint4_linear)"/>
<path d="M698.597 154.873C692.469 161.001 682.533 161.001 676.405 154.873C670.277 148.745 670.277 138.81 676.405 132.682C682.533 126.554 692.469 126.554 698.597 132.682C704.724 138.81 704.724 148.745 698.597 154.873Z" fill="url(#paint5_linear)"/>
<path d="M570.511 111.269C564.383 117.397 554.447 117.397 548.319 111.269C542.191 105.141 542.191 95.2061 548.319 89.0782C554.447 82.9503 564.383 82.9503 570.511 89.0782C576.638 95.2061 576.638 105.141 570.511 111.269Z" fill="url(#paint6_linear)"/>
<path d="M612.752 153.511C606.624 159.638 596.688 159.638 590.56 153.511C584.433 147.383 584.433 137.447 590.56 131.319C596.688 125.191 606.624 125.191 612.752 131.319C618.88 137.447 618.88 147.383 612.752 153.511Z" fill="url(#paint7_linear)"/>
<path d="M656.355 197.114C650.227 203.242 640.292 203.242 634.164 197.114C628.036 190.986 628.036 181.051 634.164 174.923C640.292 168.795 650.227 168.795 656.355 174.923C662.483 181.051 662.483 190.986 656.355 197.114Z" fill="url(#paint8_linear)"/>
<path d="M783.079 154.873C776.951 161.001 767.016 161.001 760.888 154.873C754.76 148.745 754.76 138.81 760.888 132.682C767.016 126.554 776.951 126.554 783.079 132.682C789.207 138.81 789.207 148.745 783.079 154.873Z" fill="url(#paint9_linear)"/>
<path d="M825.32 197.114C819.192 203.242 809.257 203.242 803.129 197.114C797.001 190.986 797.001 181.051 803.129 174.923C809.257 168.795 819.192 168.795 825.32 174.923C831.448 181.051 831.448 190.986 825.32 197.114Z" fill="url(#paint10_linear)"/>
<path d="M867.561 239.355C861.433 245.483 851.498 245.483 845.37 239.355C839.242 233.227 839.242 223.292 845.37 217.164C851.498 211.036 861.433 211.036 867.561 217.164C873.689 223.292 873.689 233.227 867.561 239.355Z" fill="url(#paint11_linear)"/>
<path d="M740.838 197.114C734.71 203.242 724.774 203.242 718.646 197.114C712.519 190.986 712.519 181.051 718.646 174.923C724.774 168.795 734.71 168.795 740.838 174.923C746.966 181.051 746.966 190.986 740.838 197.114Z" fill="url(#paint12_linear)"/>
<path d="M783.079 239.355C776.951 245.483 767.016 245.483 760.888 239.355C754.76 233.227 754.76 223.292 760.888 217.164C767.016 211.036 776.951 211.036 783.079 217.164C789.207 223.292 789.207 233.227 783.079 239.355Z" fill="url(#paint13_linear)"/>
<path d="M825.32 281.597C819.192 287.724 809.257 287.724 803.129 281.597C797.001 275.469 797.001 265.533 803.129 259.405C809.257 253.277 819.192 253.277 825.32 259.405C831.448 265.533 831.448 275.469 825.32 281.597Z" fill="url(#paint14_linear)"/>
<path d="M698.597 239.355C692.469 245.483 682.533 245.483 676.405 239.355C670.277 233.227 670.277 223.292 676.405 217.164C682.533 211.036 692.469 211.036 698.597 217.164C704.724 223.292 704.724 233.227 698.597 239.355Z" fill="url(#paint15_linear)"/>
<path d="M740.838 281.597C734.71 287.724 724.774 287.724 718.646 281.597C712.519 275.469 712.519 265.533 718.646 259.405C724.774 253.277 734.71 253.277 740.838 259.405C746.966 265.533 746.966 275.469 740.838 281.597Z" fill="url(#paint16_linear)"/>
<path d="M783.079 323.838C776.951 329.966 767.016 329.966 760.888 323.838C754.76 317.71 754.76 307.774 760.888 301.646C767.016 295.519 776.951 295.519 783.079 301.646C789.207 307.774 789.207 317.71 783.079 323.838Z" fill="url(#paint17_linear)"/>
<path d="M528.269 153.511C522.141 159.638 512.206 159.638 506.078 153.511C499.95 147.383 499.95 137.447 506.078 131.319C512.206 125.191 522.141 125.191 528.269 131.319C534.397 137.447 534.397 147.383 528.269 153.511Z" fill="url(#paint18_linear)"/>
<path d="M570.511 195.752C564.383 201.88 554.447 201.88 548.319 195.752C542.191 189.624 542.191 179.688 548.319 173.56C554.447 167.433 564.383 167.433 570.511 173.56C576.638 179.688 576.638 189.624 570.511 195.752Z" fill="url(#paint19_linear)"/>
<path d="M614.114 239.355C607.986 245.483 598.051 245.483 591.923 239.355C585.795 233.227 585.795 223.292 591.923 217.164C598.051 211.036 607.986 211.036 614.114 217.164C620.242 223.292 620.242 233.227 614.114 239.355Z" fill="url(#paint20_linear)"/>
<path d="M486.028 195.752C479.9 201.88 469.965 201.88 463.837 195.752C457.709 189.624 457.709 179.688 463.837 173.56C469.965 167.433 479.9 167.433 486.028 173.56C492.156 179.688 492.156 189.624 486.028 195.752Z" fill="url(#paint21_linear)"/>
<path d="M528.269 237.993C522.141 244.121 512.206 244.121 506.078 237.993C499.95 231.865 499.95 221.93 506.078 215.802C512.206 209.674 522.141 209.674 528.269 215.802C534.397 221.93 534.397 231.865 528.269 237.993Z" fill="url(#paint22_linear)"/>
<path d="M571.873 281.597C565.745 287.724 555.81 287.724 549.682 281.597C543.554 275.469 543.554 265.533 549.682 259.405C555.81 253.277 565.745 253.277 571.873 259.405C578.001 265.533 578.001 275.469 571.873 281.597Z" fill="url(#paint23_linear)"/>
<path d="M443.787 237.993C437.659 244.121 427.724 244.121 421.596 237.993C415.468 231.865 415.468 221.93 421.596 215.802C427.724 209.674 437.659 209.674 443.787 215.802C449.915 221.93 449.915 231.865 443.787 237.993Z" fill="url(#paint24_linear)"/>
<path d="M486.028 280.234C479.9 286.362 469.965 286.362 463.837 280.234C457.709 274.106 457.709 264.171 463.837 258.043C469.965 251.915 479.9 251.915 486.028 258.043C492.156 264.171 492.156 274.106 486.028 280.234Z" fill="url(#paint25_linear)"/>
<path d="M529.632 323.838C523.504 329.966 513.569 329.966 507.441 323.838C501.313 317.71 501.313 307.774 507.441 301.646C513.569 295.519 523.504 295.519 529.632 301.646C535.76 307.774 535.76 317.71 529.632 323.838Z" fill="url(#paint26_linear)"/>
<path d="M656.355 281.597C650.227 287.724 640.292 287.724 634.164 281.597C628.036 275.469 628.036 265.533 634.164 259.405C640.292 253.277 650.227 253.277 656.355 259.405C662.483 265.533 662.483 275.469 656.355 281.597Z" fill="url(#paint27_linear)"/>
<path d="M698.597 323.838C692.469 329.966 682.533 329.966 676.405 323.838C670.277 317.71 670.277 307.774 676.405 301.646C682.533 295.519 692.469 295.519 698.597 301.646C704.724 307.774 704.724 317.71 698.597 323.838Z" fill="url(#paint28_linear)"/>
<path d="M740.838 366.079C734.71 372.207 724.774 372.207 718.646 366.079C712.519 359.951 712.519 350.016 718.646 343.888C724.774 337.76 734.71 337.76 740.838 343.888C746.966 350.016 746.966 359.951 740.838 366.079Z" fill="url(#paint29_linear)"/>
<path d="M614.114 323.838C607.986 329.966 598.051 329.966 591.923 323.838C585.795 317.71 585.795 307.774 591.923 301.646C598.051 295.519 607.986 295.519 614.114 301.646C620.242 307.774 620.242 317.71 614.114 323.838Z" fill="url(#paint30_linear)"/>
<path d="M656.355 366.079C650.227 372.207 640.292 372.207 634.164 366.079C628.036 359.951 628.036 350.016 634.164 343.888C640.292 337.76 650.227 337.76 656.355 343.888C662.483 350.016 662.483 359.951 656.355 366.079Z" fill="url(#paint31_linear)"/>
<path d="M698.597 408.32C692.469 414.448 682.533 414.448 676.405 408.32C670.277 402.192 670.277 392.257 676.405 386.129C682.533 380.001 692.469 380.001 698.597 386.129C704.724 392.257 704.724 402.192 698.597 408.32Z" fill="url(#paint32_linear)"/>
<path d="M571.873 366.079C565.745 372.207 555.81 372.207 549.682 366.079C543.554 359.951 543.554 350.016 549.682 343.888C555.81 337.76 565.745 337.76 571.873 343.888C578.001 350.016 578.001 359.951 571.873 366.079Z" fill="url(#paint33_linear)"/>
<path d="M614.114 408.32C607.986 414.448 598.051 414.448 591.923 408.32C585.795 402.192 585.795 392.257 591.923 386.129C598.051 380.001 607.986 380.001 614.114 386.129C620.242 392.257 620.242 402.192 614.114 408.32Z" fill="url(#paint34_linear)"/>
<path d="M656.355 450.561C650.227 456.689 640.292 456.689 634.164 450.561C628.036 444.433 628.036 434.498 634.164 428.37C640.292 422.242 650.227 422.242 656.355 428.37C662.483 434.498 662.483 444.433 656.355 450.561Z" fill="url(#paint35_linear)"/>
<path d="M237.993 481.787C231.865 487.915 221.93 487.915 215.802 481.787C209.674 475.659 209.674 465.724 215.802 459.596C221.93 453.468 231.865 453.468 237.993 459.596C244.121 465.724 244.121 475.659 237.993 481.787Z" fill="url(#paint36_linear)"/>
<path d="M280.234 524.028C274.106 530.156 264.171 530.156 258.043 524.028C251.915 517.9 251.915 507.965 258.043 501.837C264.171 495.709 274.106 495.709 280.234 501.837C286.362 507.965 286.362 517.9 280.234 524.028Z" fill="url(#paint37_linear)"/>
<path d="M323.838 567.632C317.71 573.76 307.774 573.76 301.646 567.632C295.519 561.504 295.519 551.569 301.646 545.441C307.774 539.313 317.71 539.313 323.838 545.441C329.966 551.569 329.966 561.504 323.838 567.632Z" fill="url(#paint38_linear)"/>
<path d="M195.752 524.028C189.624 530.156 179.688 530.156 173.56 524.028C167.433 517.9 167.433 507.965 173.56 501.837C179.688 495.709 189.624 495.709 195.752 501.837C201.88 507.965 201.88 517.9 195.752 524.028Z" fill="url(#paint39_linear)"/>
<path d="M237.993 566.269C231.865 572.397 221.93 572.397 215.802 566.269C209.674 560.141 209.674 550.206 215.802 544.078C221.93 537.95 231.865 537.95 237.993 544.078C244.121 550.206 244.121 560.141 237.993 566.269Z" fill="url(#paint40_linear)"/>
<path d="M281.597 609.873C275.469 616.001 265.533 616.001 259.405 609.873C253.277 603.745 253.277 593.81 259.405 587.682C265.533 581.554 275.469 581.554 281.597 587.682C287.724 593.81 287.724 603.745 281.597 609.873Z" fill="url(#paint41_linear)"/>
<path d="M153.511 566.269C147.383 572.397 137.447 572.397 131.319 566.269C125.191 560.141 125.191 550.206 131.319 544.078C137.447 537.95 147.383 537.95 153.511 544.078C159.638 550.206 159.638 560.141 153.511 566.269Z" fill="url(#paint42_linear)"/>
<path d="M195.752 608.511C189.624 614.638 179.688 614.638 173.56 608.511C167.433 602.383 167.433 592.447 173.56 586.319C179.688 580.191 189.624 580.191 195.752 586.319C201.88 592.447 201.88 602.383 195.752 608.511Z" fill="url(#paint43_linear)"/>
<path d="M239.355 652.114C233.227 658.242 223.292 658.242 217.164 652.114C211.036 645.986 211.036 636.051 217.164 629.923C223.292 623.795 233.227 623.795 239.355 629.923C245.483 636.051 245.483 645.986 239.355 652.114Z" fill="url(#paint44_linear)"/>
<path d="M366.079 609.873C359.951 616.001 350.016 616.001 343.888 609.873C337.76 603.745 337.76 593.81 343.888 587.682C350.016 581.554 359.951 581.554 366.079 587.682C372.207 593.81 372.207 603.745 366.079 609.873Z" fill="url(#paint45_linear)"/>
<path d="M408.32 652.114C402.192 658.242 392.257 658.242 386.129 652.114C380.001 645.986 380.001 636.051 386.129 629.923C392.257 623.795 402.192 623.795 408.32 629.923C414.448 636.051 414.448 645.986 408.32 652.114Z" fill="url(#paint46_linear)"/>
<path d="M450.561 694.355C444.433 700.483 434.498 700.483 428.37 694.355C422.242 688.227 422.242 678.292 428.37 672.164C434.498 666.036 444.433 666.036 450.561 672.164C456.689 678.292 456.689 688.227 450.561 694.355Z" fill="url(#paint47_linear)"/>
<path d="M323.838 652.114C317.71 658.242 307.774 658.242 301.646 652.114C295.519 645.986 295.519 636.051 301.646 629.923C307.774 623.795 317.71 623.795 323.838 629.923C329.966 636.051 329.966 645.986 323.838 652.114Z" fill="url(#paint48_linear)"/>
<path d="M366.079 694.355C359.951 700.483 350.016 700.483 343.888 694.355C337.76 688.227 337.76 678.292 343.888 672.164C350.016 666.036 359.951 666.036 366.079 672.164C372.207 678.292 372.207 688.227 366.079 694.355Z" fill="url(#paint49_linear)"/>
<path d="M408.32 736.597C402.192 742.724 392.257 742.724 386.129 736.597C380.001 730.469 380.001 720.533 386.129 714.405C392.257 708.277 402.192 708.277 408.32 714.405C414.448 720.533 414.448 730.469 408.32 736.597Z" fill="url(#paint50_linear)"/>
<path d="M281.597 694.355C275.469 700.483 265.533 700.483 259.405 694.355C253.277 688.227 253.277 678.292 259.405 672.164C265.533 666.036 275.469 666.036 281.597 672.164C287.724 678.292 287.724 688.227 281.597 694.355Z" fill="url(#paint51_linear)"/>
<path d="M323.838 736.597C317.71 742.724 307.774 742.724 301.646 736.597C295.519 730.469 295.519 720.533 301.646 714.405C307.774 708.277 317.71 708.277 323.838 714.405C329.966 720.533 329.966 730.469 323.838 736.597Z" fill="url(#paint52_linear)"/>
<path d="M366.079 778.838C359.951 784.966 350.016 784.966 343.888 778.838C337.76 772.71 337.76 762.774 343.888 756.646C350.016 750.519 359.951 750.519 366.079 756.646C372.207 762.774 372.207 772.71 366.079 778.838Z" fill="url(#paint53_linear)"/>
<path d="M111.269 608.511C105.141 614.638 95.2061 614.638 89.0782 608.511C82.9503 602.383 82.9503 592.447 89.0782 586.319C95.2061 580.191 105.141 580.191 111.269 586.319C117.397 592.447 117.397 602.383 111.269 608.511Z" fill="url(#paint54_linear)"/>
<path d="M153.511 650.752C147.383 656.88 137.447 656.88 131.319 650.752C125.191 644.624 125.191 634.688 131.319 628.56C137.447 622.433 147.383 622.433 153.511 628.56C159.638 634.688 159.638 644.624 153.511 650.752Z" fill="url(#paint55_linear)"/>
<path d="M197.114 694.355C190.986 700.483 181.051 700.483 174.923 694.355C168.795 688.227 168.795 678.292 174.923 672.164C181.051 666.036 190.986 666.036 197.114 672.164C203.242 678.292 203.242 688.227 197.114 694.355Z" fill="url(#paint56_linear)"/>
<path d="M69.0283 650.752C62.9003 656.88 52.965 656.88 46.8371 650.752C40.7091 644.624 40.7091 634.688 46.8371 628.56C52.965 622.433 62.9003 622.433 69.0283 628.56C75.1562 634.688 75.1562 644.624 69.0283 650.752Z" fill="url(#paint57_linear)"/>
<path d="M111.269 692.993C105.141 699.121 95.2061 699.121 89.0782 692.993C82.9503 686.865 82.9503 676.93 89.0782 670.802C95.2061 664.674 105.141 664.674 111.269 670.802C117.397 676.93 117.397 686.865 111.269 692.993Z" fill="url(#paint58_linear)"/>
<path d="M154.873 736.597C148.745 742.724 138.81 742.724 132.682 736.597C126.554 730.469 126.554 720.533 132.682 714.405C138.81 708.277 148.745 708.277 154.873 714.405C161.001 720.533 161.001 730.469 154.873 736.597Z" fill="url(#paint59_linear)"/>
<path d="M26.7871 692.993C20.6592 699.121 10.7239 699.121 4.59595 692.993C-1.53198 686.865 -1.53198 676.93 4.59595 670.802C10.7239 664.674 20.6592 664.674 26.7871 670.802C32.9151 676.93 32.9151 686.865 26.7871 692.993Z" fill="url(#paint60_linear)"/>
<path d="M69.0283 735.234C62.9003 741.362 52.965 741.362 46.8371 735.234C40.7091 729.106 40.7091 719.171 46.8371 713.043C52.965 706.915 62.9003 706.915 69.0283 713.043C75.1562 719.171 75.1562 729.106 69.0283 735.234Z" fill="url(#paint61_linear)"/>
<path d="M112.632 778.838C106.504 784.966 96.5687 784.966 90.4408 778.838C84.3129 772.71 84.3129 762.774 90.4408 756.646C96.5687 750.519 106.504 750.519 112.632 756.646C118.76 762.774 118.76 772.71 112.632 778.838Z" fill="url(#paint62_linear)"/>
<path d="M239.355 736.597C233.227 742.724 223.292 742.724 217.164 736.597C211.036 730.469 211.036 720.533 217.164 714.405C223.292 708.277 233.227 708.277 239.355 714.405C245.483 720.533 245.483 730.469 239.355 736.597Z" fill="url(#paint63_linear)"/>
<path d="M281.597 778.838C275.469 784.966 265.533 784.966 259.405 778.838C253.277 772.71 253.277 762.774 259.405 756.646C265.533 750.519 275.469 750.519 281.597 756.646C287.724 762.774 287.724 772.71 281.597 778.838Z" fill="url(#paint64_linear)"/>
<path d="M323.838 821.079C317.71 827.207 307.774 827.207 301.646 821.079C295.519 814.951 295.519 805.016 301.646 798.888C307.774 792.76 317.71 792.76 323.838 798.888C329.966 805.016 329.966 814.951 323.838 821.079Z" fill="url(#paint65_linear)"/>
<path d="M197.114 778.838C190.986 784.966 181.051 784.966 174.923 778.838C168.795 772.71 168.795 762.774 174.923 756.646C181.051 750.519 190.986 750.519 197.114 756.646C203.242 762.774 203.242 772.71 197.114 778.838Z" fill="url(#paint66_linear)"/>
<path d="M239.355 821.079C233.227 827.207 223.292 827.207 217.164 821.079C211.036 814.951 211.036 805.016 217.164 798.888C223.292 792.76 233.227 792.76 239.355 798.888C245.483 805.016 245.483 814.951 239.355 821.079Z" fill="url(#paint67_linear)"/>
<path d="M281.597 863.32C275.469 869.448 265.533 869.448 259.405 863.32C253.277 857.192 253.277 847.257 259.405 841.129C265.533 835.001 275.469 835.001 281.597 841.129C287.724 847.257 287.724 857.192 281.597 863.32Z" fill="url(#paint68_linear)"/>
<path d="M154.873 821.079C148.745 827.207 138.81 827.207 132.682 821.079C126.554 814.951 126.554 805.016 132.682 798.888C138.81 792.76 148.745 792.76 154.873 798.888C161.001 805.016 161.001 814.951 154.873 821.079Z" fill="url(#paint69_linear)"/>
<path d="M197.114 863.32C190.986 869.448 181.051 869.448 174.923 863.32C168.795 857.192 168.795 847.257 174.923 841.129C181.051 835.001 190.986 835.001 197.114 841.129C203.242 847.257 203.242 857.192 197.114 863.32Z" fill="url(#paint70_linear)"/>
<path d="M239.355 905.561C233.227 911.689 223.292 911.689 217.164 905.561C211.036 899.433 211.036 889.498 217.164 883.37C223.292 877.242 233.227 877.242 239.355 883.37C245.483 889.498 245.483 899.433 239.355 905.561Z" fill="url(#paint71_linear)"/>
<defs>
<linearGradient id="paint0_linear" x1="644.5" y1="-0.499634" x2="644.5" y2="455.5" gradientUnits="userSpaceOnUse">
<stop stop-color="white" stop-opacity="0.2"/>
<stop offset="1" stop-color="white" stop-opacity="0"/>
</linearGradient>
<linearGradient id="paint1_linear" x1="644.5" y1="-0.499634" x2="644.5" y2="455.5" gradientUnits="userSpaceOnUse">
<stop stop-color="white" stop-opacity="0.2"/>
<stop offset="1" stop-color="white" stop-opacity="0"/>
</linearGradient>
<linearGradient id="paint2_linear" x1="644.5" y1="-0.499634" x2="644.5" y2="455.5" gradientUnits="userSpaceOnUse">
<stop stop-color="white" stop-opacity="0.2"/>
<stop offset="1" stop-color="white" stop-opacity="0"/>
</linearGradient>
<linearGradient id="paint3_linear" x1="644.5" y1="-0.499634" x2="644.5" y2="455.5" gradientUnits="userSpaceOnUse">
<stop stop-color="white" stop-opacity="0.2"/>
<stop offset="1" stop-color="white" stop-opacity="0"/>
</linearGradient>
<linearGradient id="paint4_linear" x1="644.5" y1="-0.499634" x2="644.5" y2="455.5" gradientUnits="userSpaceOnUse">
<stop stop-color="white" stop-opacity="0.2"/>
<stop offset="1" stop-color="white" stop-opacity="0"/>
</linearGradient>
<linearGradient id="paint5_linear" x1="644.5" y1="-0.499634" x2="644.5" y2="455.5" gradientUnits="userSpaceOnUse">
<stop stop-color="white" stop-opacity="0.2"/>
<stop offset="1" stop-color="white" stop-opacity="0"/>
</linearGradient>
<linearGradient id="paint6_linear" x1="644.5" y1="-0.499634" x2="644.5" y2="455.5" gradientUnits="userSpaceOnUse">
<stop stop-color="white" stop-opacity="0.2"/>
<stop offset="1" stop-color="white" stop-opacity="0"/>
</linearGradient>
<linearGradient id="paint7_linear" x1="644.5" y1="-0.499634" x2="644.5" y2="455.5" gradientUnits="userSpaceOnUse">
<stop stop-color="white" stop-opacity="0.2"/>
<stop offset="1" stop-color="white" stop-opacity="0"/>
</linearGradient>
<linearGradient id="paint8_linear" x1="644.5" y1="-0.499634" x2="644.5" y2="455.5" gradientUnits="userSpaceOnUse">
<stop stop-color="white" stop-opacity="0.2"/>
<stop offset="1" stop-color="white" stop-opacity="0"/>
</linearGradient>
<linearGradient id="paint9_linear" x1="644.5" y1="-0.499634" x2="644.5" y2="455.5" gradientUnits="userSpaceOnUse">
<stop stop-color="white" stop-opacity="0.2"/>
<stop offset="1" stop-color="white" stop-opacity="0"/>
</linearGradient>
<linearGradient id="paint10_linear" x1="644.5" y1="-0.499634" x2="644.5" y2="455.5" gradientUnits="userSpaceOnUse">
<stop stop-color="white" stop-opacity="0.2"/>
<stop offset="1" stop-color="white" stop-opacity="0"/>
</linearGradient>
<linearGradient id="paint11_linear" x1="644.5" y1="-0.499634" x2="644.5" y2="455.5" gradientUnits="userSpaceOnUse">
<stop stop-color="white" stop-opacity="0.2"/>
<stop offset="1" stop-color="white" stop-opacity="0"/>
</linearGradient>
<linearGradient id="paint12_linear" x1="644.5" y1="-0.499634" x2="644.5" y2="455.5" gradientUnits="userSpaceOnUse">
<stop stop-color="white" stop-opacity="0.2"/>
<stop offset="1" stop-color="white" stop-opacity="0"/>
</linearGradient>
<linearGradient id="paint13_linear" x1="644.5" y1="-0.499634" x2="644.5" y2="455.5" gradientUnits="userSpaceOnUse">
<stop stop-color="white" stop-opacity="0.2"/>
<stop offset="1" stop-color="white" stop-opacity="0"/>
</linearGradient>
<linearGradient id="paint14_linear" x1="644.5" y1="-0.499634" x2="644.5" y2="455.5" gradientUnits="userSpaceOnUse">
<stop stop-color="white" stop-opacity="0.2"/>
<stop offset="1" stop-color="white" stop-opacity="0"/>
</linearGradient>
<linearGradient id="paint15_linear" x1="644.5" y1="-0.499634" x2="644.5" y2="455.5" gradientUnits="userSpaceOnUse">
<stop stop-color="white" stop-opacity="0.2"/>
<stop offset="1" stop-color="white" stop-opacity="0"/>
</linearGradient>
<linearGradient id="paint16_linear" x1="644.5" y1="-0.499634" x2="644.5" y2="455.5" gradientUnits="userSpaceOnUse">
<stop stop-color="white" stop-opacity="0.2"/>
<stop offset="1" stop-color="white" stop-opacity="0"/>
</linearGradient>
<linearGradient id="paint17_linear" x1="644.5" y1="-0.499634" x2="644.5" y2="455.5" gradientUnits="userSpaceOnUse">
<stop stop-color="white" stop-opacity="0.2"/>
<stop offset="1" stop-color="white" stop-opacity="0"/>
</linearGradient>
<linearGradient id="paint18_linear" x1="644.5" y1="-0.499634" x2="644.5" y2="455.5" gradientUnits="userSpaceOnUse">
<stop stop-color="white" stop-opacity="0.2"/>
<stop offset="1" stop-color="white" stop-opacity="0"/>
</linearGradient>
<linearGradient id="paint19_linear" x1="644.5" y1="-0.499634" x2="644.5" y2="455.5" gradientUnits="userSpaceOnUse">
<stop stop-color="white" stop-opacity="0.2"/>
<stop offset="1" stop-color="white" stop-opacity="0"/>
</linearGradient>
<linearGradient id="paint20_linear" x1="644.5" y1="-0.499634" x2="644.5" y2="455.5" gradientUnits="userSpaceOnUse">
<stop stop-color="white" stop-opacity="0.2"/>
<stop offset="1" stop-color="white" stop-opacity="0"/>
</linearGradient>
<linearGradient id="paint21_linear" x1="644.5" y1="-0.499634" x2="644.5" y2="455.5" gradientUnits="userSpaceOnUse">
<stop stop-color="white" stop-opacity="0.2"/>
<stop offset="1" stop-color="white" stop-opacity="0"/>
</linearGradient>
<linearGradient id="paint22_linear" x1="644.5" y1="-0.499634" x2="644.5" y2="455.5" gradientUnits="userSpaceOnUse">
<stop stop-color="white" stop-opacity="0.2"/>
<stop offset="1" stop-color="white" stop-opacity="0"/>
</linearGradient>
<linearGradient id="paint23_linear" x1="644.5" y1="-0.499634" x2="644.5" y2="455.5" gradientUnits="userSpaceOnUse">
<stop stop-color="white" stop-opacity="0.2"/>
<stop offset="1" stop-color="white" stop-opacity="0"/>
</linearGradient>
<linearGradient id="paint24_linear" x1="644.5" y1="-0.499634" x2="644.5" y2="455.5" gradientUnits="userSpaceOnUse">
<stop stop-color="white" stop-opacity="0.2"/>
<stop offset="1" stop-color="white" stop-opacity="0"/>
</linearGradient>
<linearGradient id="paint25_linear" x1="644.5" y1="-0.499634" x2="644.5" y2="455.5" gradientUnits="userSpaceOnUse">
<stop stop-color="white" stop-opacity="0.2"/>
<stop offset="1" stop-color="white" stop-opacity="0"/>
</linearGradient>
<linearGradient id="paint26_linear" x1="644.5" y1="-0.499634" x2="644.5" y2="455.5" gradientUnits="userSpaceOnUse">
<stop stop-color="white" stop-opacity="0.2"/>
<stop offset="1" stop-color="white" stop-opacity="0"/>
</linearGradient>
<linearGradient id="paint27_linear" x1="644.5" y1="-0.499634" x2="644.5" y2="455.5" gradientUnits="userSpaceOnUse">
<stop stop-color="white" stop-opacity="0.2"/>
<stop offset="1" stop-color="white" stop-opacity="0"/>
</linearGradient>
<linearGradient id="paint28_linear" x1="644.5" y1="-0.499634" x2="644.5" y2="455.5" gradientUnits="userSpaceOnUse">
<stop stop-color="white" stop-opacity="0.2"/>
<stop offset="1" stop-color="white" stop-opacity="0"/>
</linearGradient>
<linearGradient id="paint29_linear" x1="644.5" y1="-0.499634" x2="644.5" y2="455.5" gradientUnits="userSpaceOnUse">
<stop stop-color="white" stop-opacity="0.2"/>
<stop offset="1" stop-color="white" stop-opacity="0"/>
</linearGradient>
<linearGradient id="paint30_linear" x1="644.5" y1="-0.499634" x2="644.5" y2="455.5" gradientUnits="userSpaceOnUse">
<stop stop-color="white" stop-opacity="0.2"/>
<stop offset="1" stop-color="white" stop-opacity="0"/>
</linearGradient>
<linearGradient id="paint31_linear" x1="644.5" y1="-0.499634" x2="644.5" y2="455.5" gradientUnits="userSpaceOnUse">
<stop stop-color="white" stop-opacity="0.2"/>
<stop offset="1" stop-color="white" stop-opacity="0"/>
</linearGradient>
<linearGradient id="paint32_linear" x1="644.5" y1="-0.499634" x2="644.5" y2="455.5" gradientUnits="userSpaceOnUse">
<stop stop-color="white" stop-opacity="0.2"/>
<stop offset="1" stop-color="white" stop-opacity="0"/>
</linearGradient>
<linearGradient id="paint33_linear" x1="644.5" y1="-0.499634" x2="644.5" y2="455.5" gradientUnits="userSpaceOnUse">
<stop stop-color="white" stop-opacity="0.2"/>
<stop offset="1" stop-color="white" stop-opacity="0"/>
</linearGradient>
<linearGradient id="paint34_linear" x1="644.5" y1="-0.499634" x2="644.5" y2="455.5" gradientUnits="userSpaceOnUse">
<stop stop-color="white" stop-opacity="0.2"/>
<stop offset="1" stop-color="white" stop-opacity="0"/>
</linearGradient>
<linearGradient id="paint35_linear" x1="644.5" y1="-0.499634" x2="644.5" y2="455.5" gradientUnits="userSpaceOnUse">
<stop stop-color="white" stop-opacity="0.2"/>
<stop offset="1" stop-color="white" stop-opacity="0"/>
</linearGradient>
<linearGradient id="paint36_linear" x1="227.5" y1="454.5" x2="227.5" y2="910.5" gradientUnits="userSpaceOnUse">
<stop stop-color="white" stop-opacity="0.2"/>
<stop offset="1" stop-color="white" stop-opacity="0"/>
</linearGradient>
<linearGradient id="paint37_linear" x1="227.5" y1="454.5" x2="227.5" y2="910.5" gradientUnits="userSpaceOnUse">
<stop stop-color="white" stop-opacity="0.2"/>
<stop offset="1" stop-color="white" stop-opacity="0"/>
</linearGradient>
<linearGradient id="paint38_linear" x1="227.5" y1="454.5" x2="227.5" y2="910.5" gradientUnits="userSpaceOnUse">
<stop stop-color="white" stop-opacity="0.2"/>
<stop offset="1" stop-color="white" stop-opacity="0"/>
</linearGradient>
<linearGradient id="paint39_linear" x1="227.5" y1="454.5" x2="227.5" y2="910.5" gradientUnits="userSpaceOnUse">
<stop stop-color="white" stop-opacity="0.2"/>
<stop offset="1" stop-color="white" stop-opacity="0"/>
</linearGradient>
<linearGradient id="paint40_linear" x1="227.5" y1="454.5" x2="227.5" y2="910.5" gradientUnits="userSpaceOnUse">
<stop stop-color="white" stop-opacity="0.2"/>
<stop offset="1" stop-color="white" stop-opacity="0"/>
</linearGradient>
<linearGradient id="paint41_linear" x1="227.5" y1="454.5" x2="227.5" y2="910.5" gradientUnits="userSpaceOnUse">
<stop stop-color="white" stop-opacity="0.2"/>
<stop offset="1" stop-color="white" stop-opacity="0"/>
</linearGradient>
<linearGradient id="paint42_linear" x1="227.5" y1="454.5" x2="227.5" y2="910.5" gradientUnits="userSpaceOnUse">
<stop stop-color="white" stop-opacity="0.2"/>
<stop offset="1" stop-color="white" stop-opacity="0"/>
</linearGradient>
<linearGradient id="paint43_linear" x1="227.5" y1="454.5" x2="227.5" y2="910.5" gradientUnits="userSpaceOnUse">
<stop stop-color="white" stop-opacity="0.2"/>
<stop offset="1" stop-color="white" stop-opacity="0"/>
</linearGradient>
<linearGradient id="paint44_linear" x1="227.5" y1="454.5" x2="227.5" y2="910.5" gradientUnits="userSpaceOnUse">
<stop stop-color="white" stop-opacity="0.2"/>
<stop offset="1" stop-color="white" stop-opacity="0"/>
</linearGradient>
<linearGradient id="paint45_linear" x1="227.5" y1="454.5" x2="227.5" y2="910.5" gradientUnits="userSpaceOnUse">
<stop stop-color="white" stop-opacity="0.2"/>
<stop offset="1" stop-color="white" stop-opacity="0"/>
</linearGradient>
<linearGradient id="paint46_linear" x1="227.5" y1="454.5" x2="227.5" y2="910.5" gradientUnits="userSpaceOnUse">
<stop stop-color="white" stop-opacity="0.2"/>
<stop offset="1" stop-color="white" stop-opacity="0"/>
</linearGradient>
<linearGradient id="paint47_linear" x1="227.5" y1="454.5" x2="227.5" y2="910.5" gradientUnits="userSpaceOnUse">
<stop stop-color="white" stop-opacity="0.2"/>
<stop offset="1" stop-color="white" stop-opacity="0"/>
</linearGradient>
<linearGradient id="paint48_linear" x1="227.5" y1="454.5" x2="227.5" y2="910.5" gradientUnits="userSpaceOnUse">
<stop stop-color="white" stop-opacity="0.2"/>
<stop offset="1" stop-color="white" stop-opacity="0"/>
</linearGradient>
<linearGradient id="paint49_linear" x1="227.5" y1="454.5" x2="227.5" y2="910.5" gradientUnits="userSpaceOnUse">
<stop stop-color="white" stop-opacity="0.2"/>
<stop offset="1" stop-color="white" stop-opacity="0"/>
</linearGradient>
<linearGradient id="paint50_linear" x1="227.5" y1="454.5" x2="227.5" y2="910.5" gradientUnits="userSpaceOnUse">
<stop stop-color="white" stop-opacity="0.2"/>
<stop offset="1" stop-color="white" stop-opacity="0"/>
</linearGradient>
<linearGradient id="paint51_linear" x1="227.5" y1="454.5" x2="227.5" y2="910.5" gradientUnits="userSpaceOnUse">
<stop stop-color="white" stop-opacity="0.2"/>
<stop offset="1" stop-color="white" stop-opacity="0"/>
</linearGradient>
<linearGradient id="paint52_linear" x1="227.5" y1="454.5" x2="227.5" y2="910.5" gradientUnits="userSpaceOnUse">
<stop stop-color="white" stop-opacity="0.2"/>
<stop offset="1" stop-color="white" stop-opacity="0"/>
</linearGradient>
<linearGradient id="paint53_linear" x1="227.5" y1="454.5" x2="227.5" y2="910.5" gradientUnits="userSpaceOnUse">
<stop stop-color="white" stop-opacity="0.2"/>
<stop offset="1" stop-color="white" stop-opacity="0"/>
</linearGradient>
<linearGradient id="paint54_linear" x1="227.5" y1="454.5" x2="227.5" y2="910.5" gradientUnits="userSpaceOnUse">
<stop stop-color="white" stop-opacity="0.2"/>
<stop offset="1" stop-color="white" stop-opacity="0"/>
</linearGradient>
<linearGradient id="paint55_linear" x1="227.5" y1="454.5" x2="227.5" y2="910.5" gradientUnits="userSpaceOnUse">
<stop stop-color="white" stop-opacity="0.2"/>
<stop offset="1" stop-color="white" stop-opacity="0"/>
</linearGradient>
<linearGradient id="paint56_linear" x1="227.5" y1="454.5" x2="227.5" y2="910.5" gradientUnits="userSpaceOnUse">
<stop stop-color="white" stop-opacity="0.2"/>
<stop offset="1" stop-color="white" stop-opacity="0"/>
</linearGradient>
<linearGradient id="paint57_linear" x1="227.5" y1="454.5" x2="227.5" y2="910.5" gradientUnits="userSpaceOnUse">
<stop stop-color="white" stop-opacity="0.2"/>
<stop offset="1" stop-color="white" stop-opacity="0"/>
</linearGradient>
<linearGradient id="paint58_linear" x1="227.5" y1="454.5" x2="227.5" y2="910.5" gradientUnits="userSpaceOnUse">
<stop stop-color="white" stop-opacity="0.2"/>
<stop offset="1" stop-color="white" stop-opacity="0"/>
</linearGradient>
<linearGradient id="paint59_linear" x1="227.5" y1="454.5" x2="227.5" y2="910.5" gradientUnits="userSpaceOnUse">
<stop stop-color="white" stop-opacity="0.2"/>
<stop offset="1" stop-color="white" stop-opacity="0"/>
</linearGradient>
<linearGradient id="paint60_linear" x1="227.5" y1="454.5" x2="227.5" y2="910.5" gradientUnits="userSpaceOnUse">
<stop stop-color="white" stop-opacity="0.2"/>
<stop offset="1" stop-color="white" stop-opacity="0"/>
</linearGradient>
<linearGradient id="paint61_linear" x1="227.5" y1="454.5" x2="227.5" y2="910.5" gradientUnits="userSpaceOnUse">
<stop stop-color="white" stop-opacity="0.2"/>
<stop offset="1" stop-color="white" stop-opacity="0"/>
</linearGradient>
<linearGradient id="paint62_linear" x1="227.5" y1="454.5" x2="227.5" y2="910.5" gradientUnits="userSpaceOnUse">
<stop stop-color="white" stop-opacity="0.2"/>
<stop offset="1" stop-color="white" stop-opacity="0"/>
</linearGradient>
<linearGradient id="paint63_linear" x1="227.5" y1="454.5" x2="227.5" y2="910.5" gradientUnits="userSpaceOnUse">
<stop stop-color="white" stop-opacity="0.2"/>
<stop offset="1" stop-color="white" stop-opacity="0"/>
</linearGradient>
<linearGradient id="paint64_linear" x1="227.5" y1="454.5" x2="227.5" y2="910.5" gradientUnits="userSpaceOnUse">
<stop stop-color="white" stop-opacity="0.2"/>
<stop offset="1" stop-color="white" stop-opacity="0"/>
</linearGradient>
<linearGradient id="paint65_linear" x1="227.5" y1="454.5" x2="227.5" y2="910.5" gradientUnits="userSpaceOnUse">
<stop stop-color="white" stop-opacity="0.2"/>
<stop offset="1" stop-color="white" stop-opacity="0"/>
</linearGradient>
<linearGradient id="paint66_linear" x1="227.5" y1="454.5" x2="227.5" y2="910.5" gradientUnits="userSpaceOnUse">
<stop stop-color="white" stop-opacity="0.2"/>
<stop offset="1" stop-color="white" stop-opacity="0"/>
</linearGradient>
<linearGradient id="paint67_linear" x1="227.5" y1="454.5" x2="227.5" y2="910.5" gradientUnits="userSpaceOnUse">
<stop stop-color="white" stop-opacity="0.2"/>
<stop offset="1" stop-color="white" stop-opacity="0"/>
</linearGradient>
<linearGradient id="paint68_linear" x1="227.5" y1="454.5" x2="227.5" y2="910.5" gradientUnits="userSpaceOnUse">
<stop stop-color="white" stop-opacity="0.2"/>
<stop offset="1" stop-color="white" stop-opacity="0"/>
</linearGradient>
<linearGradient id="paint69_linear" x1="227.5" y1="454.5" x2="227.5" y2="910.5" gradientUnits="userSpaceOnUse">
<stop stop-color="white" stop-opacity="0.2"/>
<stop offset="1" stop-color="white" stop-opacity="0"/>
</linearGradient>
<linearGradient id="paint70_linear" x1="227.5" y1="454.5" x2="227.5" y2="910.5" gradientUnits="userSpaceOnUse">
<stop stop-color="white" stop-opacity="0.2"/>
<stop offset="1" stop-color="white" stop-opacity="0"/>
</linearGradient>
<linearGradient id="paint71_linear" x1="227.5" y1="454.5" x2="227.5" y2="910.5" gradientUnits="userSpaceOnUse">
<stop stop-color="white" stop-opacity="0.2"/>
<stop offset="1" stop-color="white" stop-opacity="0"/>
</linearGradient>
</defs>
</svg>
