<svg width="33" height="30" viewBox="0 0 33 30" fill="none" xmlns="http://www.w3.org/2000/svg">
<g clip-path="url(#clip0)">
<path d="M5.83761 4.13824C3.72904 4.14666 2.29145 4.15829 2.17128 4.17379C1.38213 4.27555 0.608506 4.79789 0.30101 5.43656C-0.0120271 6.08675 -0.000675349 5.74015 0.000262612 14.6338C0.00115591 23.6337 -0.0114843 23.2856 0.337825 23.9274C0.556572 24.3293 1.10149 24.8179 1.51877 24.9863L1.86061 25.1244L8.22732 25.1402L14.594 25.156V25.9508V26.7457L10.0295 26.7622L5.46496 26.7788L5.25354 26.9103C4.94323 27.1033 4.88781 27.2727 4.85747 28.1219C4.81792 29.2287 4.86443 29.5011 5.1394 29.776L5.36341 30L16.217 29.9848L27.0707 29.9696L27.2679 29.7543C27.5114 29.4886 27.5581 29.1917 27.5247 28.1204C27.5045 27.4725 27.4829 27.3371 27.3714 27.1567C27.1266 26.7604 27.381 26.7804 22.3493 26.7622L17.7848 26.7457V25.9497V25.1539H24.0374C30.8611 25.1539 30.5844 25.1669 31.1812 24.8178C31.5616 24.5953 31.9867 24.0921 32.1796 23.6361L32.3499 23.2335L32.3676 14.8726C32.3804 8.79346 32.3668 6.41552 32.3178 6.15946C32.1165 5.10693 31.283 4.31369 30.2355 4.1776C30.115 4.16195 28.6569 4.14977 26.5203 4.14078L27.0994 7.36846H29.1296V14.6363V21.9041H16.1894H3.24917V14.6363V7.36846H5.29243L5.83761 4.13824Z" fill="#313131"/>
<path d="M8.04079 15.7447C6.95116 15.6254 5.92187 14.9737 5.37854 14.0591C5.0862 13.5671 4.95662 13.129 4.93471 12.5589C4.92407 12.2817 4.93729 11.9347 4.96539 11.7547C4.99256 11.5805 5.08702 10.9833 5.17531 10.4276C5.2636 9.87185 5.5228 8.2387 5.7513 6.79834C6.06169 4.84191 6.19858 4.08042 6.29254 3.78773C6.76098 2.32838 8.01826 1.17566 9.57146 0.78149C11.9636 0.174412 14.9405 -0.102141 17.6165 0.0341062C19.5072 0.130373 22.1093 0.53182 23.155 0.888596C24.5061 1.34954 25.5649 2.36699 26.0416 3.66247C26.1867 4.05688 26.1632 3.92215 26.9296 8.7573C27.0554 9.5512 27.2227 10.6007 27.3012 11.0896C27.507 12.3695 27.4893 12.9456 27.2243 13.6017C26.9192 14.3569 26.2259 15.0854 25.4994 15.414C24.1451 16.0266 22.5642 15.8401 21.349 14.9244C20.6174 14.3731 20.3242 13.9258 19.8543 12.6443L19.7673 12.4072H16.1884H12.6096L12.4153 12.933C12.3085 13.2222 12.1565 13.5746 12.0775 13.716C11.2981 15.1124 9.68213 15.9245 8.04079 15.7447ZM12.3784 9.75073L12.4941 9.65126L12.5065 8.63722L12.5189 7.62317L13.4138 7.62286C14.429 7.62254 14.5855 7.59603 14.7025 7.40404C14.8147 7.22002 14.8204 6.35774 14.7108 6.1384C14.6012 5.91898 14.481 5.89594 13.4324 5.89328L12.5148 5.89098V4.94038C12.5148 3.93345 12.4934 3.80411 12.3108 3.70641C12.2671 3.68303 11.9694 3.66395 11.6482 3.66395H11.065L10.9444 3.7845L10.8239 3.90505V4.89801V5.89098L9.92686 5.89129C8.90948 5.8916 8.75319 5.91805 8.63608 6.11011C8.52388 6.29413 8.51825 7.1564 8.62783 7.37575C8.73744 7.59517 8.8576 7.61821 9.90624 7.62087L10.8239 7.62317V8.57377C10.8239 9.57157 10.8449 9.7038 11.0198 9.80565C11.0595 9.82877 11.3554 9.84825 11.6773 9.84894C12.2374 9.85017 12.2677 9.8459 12.3784 9.75073H12.3784ZM20.7279 9.7193C21.313 9.44769 21.6372 8.81449 21.511 8.19024C21.3423 7.35651 20.5306 6.86712 19.7177 7.10905C19.4375 7.19243 19.2111 7.35348 19.0215 7.60423C18.8206 7.86987 18.7422 8.10829 18.7422 8.45379C18.7422 9.07397 19.1187 9.59926 19.6988 9.78824C19.9806 9.88005 20.4492 9.84865 20.7279 9.7193ZM23.0022 6.32672C23.8913 5.87619 24.0642 4.72323 23.3447 4.04275C23.0509 3.76485 22.7418 3.65183 22.3302 3.67178C21.7714 3.69887 21.3635 3.97369 21.1209 4.48645C21.0151 4.71014 20.9953 4.80177 20.9953 5.06621C20.9953 5.33376 21.0143 5.41964 21.1241 5.64597C21.3129 6.03522 21.5243 6.23645 21.9051 6.38912C22.2118 6.51208 22.69 6.48489 23.0022 6.32672Z" fill="#313131"/>
</g>
<defs>
<clipPath id="clip0">
<rect width="32.3721" height="30" fill="white"/>
</clipPath>
</defs>
</svg>
