<svg width="478" height="219" viewBox="0 0 478 219" fill="none" xmlns="http://www.w3.org/2000/svg">
<path d="M194.437 92.7401C183.171 92.7401 174.518 89.703 168.478 83.6287C162.472 77.5544 159.469 68.2733 159.469 55.7854C159.469 43.2636 162.608 33.9995 168.886 27.9931C175.197 21.9527 184.648 18.9325 197.237 18.9325H208.587C216.087 18.9325 222.839 20.7311 228.845 24.3281C234.886 27.8913 237.906 32.3536 237.906 37.7153C237.906 39.7174 237.312 41.1596 236.124 42.0419C234.937 42.8903 233.783 43.3145 232.663 43.3145H226.606C223.688 43.3145 221.363 41.6517 219.633 38.3261C217.902 35.0005 213.626 33.3377 206.806 33.3377H197.746C190.314 33.3377 185.275 34.9327 182.628 38.1225C179.982 41.3123 178.658 47.183 178.658 55.7345C178.658 64.286 179.846 70.2076 182.221 73.4992C184.597 76.7569 188.838 78.3858 194.946 78.3858H205.381C210.844 78.3858 214.746 77.3508 217.088 75.2808C219.429 73.1768 220.634 70.1736 220.702 66.2712H209.198C207.875 66.2712 206.738 65.8131 205.788 64.8968C204.872 63.9467 204.414 62.8099 204.414 61.4864V57.5161C204.414 56.1926 204.872 55.0728 205.788 54.1566C206.738 53.2064 207.875 52.7313 209.198 52.7313H234.75C236.073 52.7313 237.193 53.2064 238.109 54.1566C239.059 55.0728 239.534 56.1926 239.534 57.5161V63.1662C239.534 72.6678 236.684 79.9807 230.983 85.1048C225.283 90.195 216.918 92.7401 205.89 92.7401H194.437Z" fill="#FAFAFA"/>
<path d="M252.514 88.668C248.035 85.546 245.795 81.1345 245.795 75.4335C245.795 69.7325 248.035 65.3549 252.514 62.3008C257.027 59.2467 262.83 57.7197 269.922 57.7197H286.769C286.769 53.7493 285.938 50.9837 284.275 49.4227C282.613 47.8617 279.694 47.0812 275.521 47.0812C271.381 47.0812 268.463 48.1162 266.766 50.1862C265.103 52.2223 263.05 53.2403 260.607 53.2403H253.023C252.107 53.2403 251.343 52.9519 250.732 52.375C250.156 51.7642 249.867 51.0176 249.867 50.1353C249.867 40.3961 259.114 35.5265 277.608 35.5265C285.684 35.5265 292.165 37.342 297.051 40.973C301.938 44.5701 304.381 50.1523 304.381 57.7197V89.2279C304.381 90.1441 304.092 90.8907 303.516 91.4675C302.939 92.0444 302.192 92.3329 301.276 92.3329H291.452C290.536 92.3329 289.79 92.0444 289.213 91.4675C288.636 90.8567 288.347 90.1102 288.347 89.2279V87.6499C282.986 91.4845 276.793 93.3848 269.769 93.3509C262.779 93.3509 257.027 91.7899 252.514 88.668ZM271.143 69.2744C268.768 69.2744 266.885 69.8513 265.493 71.005C264.136 72.1588 263.457 73.6519 263.457 75.4844C263.457 77.3169 264.17 78.8269 265.595 80.0147C267.02 81.2024 269.039 81.7962 271.652 81.7962C276.878 81.7962 281.917 80.2692 286.769 77.2151V69.2744H271.143Z" fill="#FAFAFA"/>
<path d="M316.953 89.2279V39.7005C316.953 38.7842 317.241 38.0377 317.818 37.4608C318.429 36.85 319.176 36.5446 320.058 36.5446H331.459C332.376 36.5446 333.122 36.85 333.699 37.4608C334.276 38.0377 334.564 38.7842 334.564 39.7005V42.9073C337.008 40.5319 339.4 38.7164 341.741 37.4608C344.117 36.1713 346.967 35.5265 350.292 35.5265C358.199 35.5265 364.188 38.7842 368.26 45.2997C374.572 38.7503 381.036 35.4926 387.653 35.5265C394.304 35.5265 399.546 37.5287 403.381 41.5329C407.249 45.5033 409.183 51.6624 409.183 60.0103V89.2279C409.183 90.1441 408.895 90.8907 408.318 91.4675C407.741 92.0444 406.995 92.3329 406.079 92.3329H394.728C393.812 92.3329 393.048 92.0444 392.437 91.4675C391.861 90.8567 391.572 90.1102 391.572 89.2279V60.0103C391.572 51.866 388.62 47.8108 382.716 47.8447C379.119 47.8447 375.403 50.4407 371.569 55.6327C371.772 57.0919 371.874 58.5511 371.874 60.0103V89.2279C371.874 90.1441 371.569 90.8907 370.958 91.4675C370.381 92.0444 369.651 92.3329 368.769 92.3329H357.418C356.502 92.3329 355.739 92.0444 355.128 91.4675C354.551 90.8567 354.263 90.1102 354.263 89.2279V60.0103C354.263 51.866 351.31 47.8108 345.406 47.8447C341.639 47.8447 338.026 50.2711 334.564 55.1237V89.2279C334.564 90.1441 334.259 90.8907 333.648 91.4675C333.071 92.0444 332.342 92.3329 331.459 92.3329H320.058C319.142 92.3329 318.395 92.0444 317.818 91.4675C317.241 90.8907 316.953 90.1441 316.953 89.2279Z" fill="#FAFAFA"/>
<path d="M426.388 85.9193C421.162 80.9648 418.549 73.8386 418.549 64.5405C418.549 55.2085 421.179 48.0483 426.439 43.06C431.698 38.0377 438.994 35.5265 448.325 35.5265C457.657 35.5265 464.936 37.9698 470.161 42.8564C475.387 47.709 478 54.6825 478 63.777V66.6784C478 67.5946 477.695 68.3581 477.084 68.969C476.507 69.5459 475.76 69.8343 474.844 69.8343H436.517C436.856 74.0082 438.044 77.0454 440.08 78.9457C442.15 80.846 445.441 81.7962 449.954 81.7962C454.467 81.7962 457.555 80.7782 459.218 78.7421C460.881 76.706 462.934 75.671 465.377 75.6371H472.961C473.877 75.6371 474.624 75.9425 475.201 76.5533C475.811 77.1302 476.117 77.8768 476.117 78.793C476.117 88.5322 466.836 93.3848 448.275 93.3509C438.909 93.3509 431.613 90.8737 426.388 85.9193ZM436.415 59.094H460.083C459.744 51.0855 455.808 47.0812 448.275 47.0812C440.775 47.0812 436.822 51.0855 436.415 59.094Z" fill="#FAFAFA"/>
<path d="M4.7904 188.607C4.7904 185.518 5.70659 183.319 7.53899 182.01C9.37138 180.649 11.1514 179.968 12.8791 179.968H22.2243C26.9362 179.968 30.5224 182.534 32.9831 187.665C35.4437 192.796 40.9671 195.361 49.5531 195.361L77.039 195.911C86.2533 195.911 90.8605 192.9 90.8605 186.879C90.8605 182.324 85.2324 178.738 73.9763 176.12C68.9503 174.916 63.4008 173.738 57.3277 172.586C51.2546 171.382 45.2077 169.89 39.187 168.11C33.2187 166.329 27.7215 164.235 22.6955 161.827C17.6695 159.418 13.5859 156.12 10.4446 151.932C7.35575 147.691 5.8113 142.717 5.8113 137.01C5.8113 126.487 9.55462 118.397 17.0413 112.743C24.5279 107.036 37.407 104.183 55.6786 104.183L75.6255 104.654C86.3581 104.654 96.0174 107.429 104.603 112.979C113.242 118.476 117.561 125.361 117.561 133.633C117.561 136.722 116.645 138.947 114.812 140.309C112.98 141.67 111.226 142.35 109.551 142.35H100.206C95.4938 142.35 91.9076 139.785 89.4469 134.654C86.9863 129.471 81.4629 126.879 72.8769 126.879L49.239 126.408C40.0247 126.408 35.4175 129.418 35.4175 135.439C35.4175 138.738 38.3232 141.434 44.1345 143.528C49.9981 145.623 57.0659 147.481 65.3379 149.104C73.6622 150.675 82.0127 152.586 90.3893 154.837C98.766 157.089 105.86 160.806 111.671 165.989C117.535 171.12 120.467 177.534 120.467 185.23C120.467 195.754 116.697 203.869 109.158 209.576C101.672 215.23 88.8187 218.057 70.5995 218.057L46.8045 217.586C36.072 217.586 26.3865 214.837 17.748 209.34C9.10961 203.79 4.7904 196.879 4.7904 188.607Z" fill="#FAFAFA"/>
<path d="M175.988 200.387L186.747 199.445H189.653C191.066 199.445 192.218 199.89 193.108 200.78C194.05 201.67 194.522 202.822 194.522 204.235V212.638C194.522 213.79 194.05 214.837 193.108 215.78C192.218 216.67 191.066 217.22 189.653 217.429C184.313 218.476 177.349 219 168.763 219C146.251 219 134.995 207.22 134.995 183.659V109.68C134.995 108.267 135.44 107.115 136.33 106.225C137.272 105.282 138.424 104.811 139.785 104.811H157.376C158.738 104.811 159.863 105.282 160.753 106.225C161.696 107.115 162.167 108.267 162.167 109.68V135.911H184.077C185.438 135.911 186.564 136.356 187.454 137.246C188.396 138.136 188.867 139.288 188.867 140.701V150.047C188.867 151.46 188.396 152.612 187.454 153.502C186.564 154.392 185.438 154.837 184.077 154.837H162.167V183.659C162.167 189 163.423 193.136 165.936 196.068C168.449 198.947 171.8 200.387 175.988 200.387Z" fill="#FAFAFA"/>
<path d="M213.997 207.691C205.83 200.152 201.746 189.052 201.746 174.392C201.746 159.68 205.83 148.581 213.997 141.094C222.165 133.555 233.892 129.785 249.179 129.785C264.519 129.785 276.272 133.555 284.44 141.094C292.607 148.581 296.691 159.68 296.691 174.392C296.691 189.052 292.607 200.152 284.44 207.691C276.272 215.23 264.519 219 249.179 219C233.892 219 222.165 215.23 213.997 207.691ZM233.866 153.973C230.62 158.214 228.997 164.994 228.997 174.314C228.997 183.633 230.62 190.439 233.866 194.733C237.112 199.026 242.216 201.172 249.179 201.172C256.195 201.172 261.325 199.026 264.571 194.733C267.87 190.439 269.519 183.633 269.519 174.314C269.519 164.994 267.87 158.214 264.571 153.973C261.325 149.733 256.195 147.612 249.179 147.612C242.216 147.612 237.112 149.733 233.866 153.973Z" fill="#FAFAFA"/>
<path d="M370.745 151.303L358.652 150.832C351.584 150.832 344.83 154.706 338.391 162.455V212.638C338.391 214.052 337.919 215.204 336.977 216.094C336.087 216.984 334.961 217.429 333.6 217.429H316.009C314.596 217.429 313.444 216.984 312.554 216.094C311.664 215.204 311.219 214.052 311.219 212.638V136.225C311.219 134.811 311.664 133.659 312.554 132.769C313.496 131.827 314.648 131.356 316.009 131.356H333.6C335.014 131.356 336.166 131.827 337.056 132.769C337.946 133.659 338.391 134.811 338.391 136.225V141.172C343.731 137.298 348.861 134.445 353.783 132.612C358.756 130.727 365.248 129.785 373.258 129.785C374.672 129.785 375.824 130.256 376.714 131.199C377.656 132.089 378.127 133.214 378.127 134.576V146.513C378.127 147.926 377.656 149.078 376.714 149.968C375.824 150.858 374.672 151.303 373.258 151.303H370.745Z" fill="#FAFAFA"/>
<path d="M395.875 207.534C387.813 199.89 383.782 188.895 383.782 174.549C383.782 160.151 387.839 149.104 395.954 141.408C404.069 133.659 415.325 129.785 429.722 129.785C444.12 129.785 455.35 133.555 463.412 141.094C471.475 148.581 475.506 159.34 475.506 173.371V177.848C475.506 179.261 475.035 180.439 474.092 181.382C473.202 182.272 472.051 182.717 470.637 182.717H411.503C412.027 189.157 413.859 193.843 417 196.775C420.194 199.707 425.272 201.172 432.235 201.172C439.198 201.172 443.963 199.602 446.528 196.46C449.093 193.319 452.261 191.722 456.03 191.67H467.731C469.145 191.67 470.297 192.141 471.187 193.083C472.129 193.974 472.6 195.125 472.6 196.539C472.6 211.565 458.281 219.052 429.644 219C415.194 219 403.938 215.178 395.875 207.534ZM411.346 166.146H447.863C447.339 153.79 441.266 147.612 429.644 147.612C418.074 147.612 411.974 153.79 411.346 166.146Z" fill="#FAFAFA"/>
<path d="M23.291 0.225012C23.1178 0.365644 17.8005 5.11012 11.4691 14.3918C-1.36679 33.2084 -0.501171 31.577 0.537571 35.0647C1.65051 38.7774 3.80219 41.9275 6.64636 44.0089C7.90769 44.9371 9.66366 45.7527 12.0379 46.4559C12.2605 46.5403 12.3347 50.5061 12.3347 65.1318V83.7233L12.953 85.8609C14.338 90.5018 17.0091 93.5394 21.2382 95.2832L22.8458 95.9302H108.171L109.927 95.1989C113.835 93.5675 116.407 90.6987 118.014 86.2266C118.558 84.6796 118.558 84.5671 118.682 65.5818L118.806 46.5121L120.685 45.8934C121.699 45.5558 123.084 44.9089 123.777 44.4589C125.384 43.3901 127.61 40.9431 128.748 39.0024C129.762 37.2867 131.048 33.3771 131.048 32.0833C131.048 31.4083 128.896 28.0894 119.894 14.9262C113.76 5.95391 108.493 1.20943 108.146 0.759413L107.553 0H65.5579C42.483 0 23.4394 0.112507 23.291 0.225012ZM55.3683 3.76893C55.3683 4.38771 51.4359 30.0301 51.337 30.1426C51.2875 30.1988 46.3411 30.227 40.3313 30.1988L29.4245 30.1145L35.2365 15.9106C38.4517 8.09151 41.1722 4.35959 41.2958 3.99395L41.5184 3.37516H48.4434C54.107 3.37516 55.3683 3.43142 55.3683 3.76893ZM95.4835 15.2637L101.568 30.1145L90.6608 30.1988C84.6757 30.227 79.7293 30.1988 79.6551 30.1145C79.5067 29.9738 75.6485 4.92212 75.6485 3.99395V3.37516H89.3995L95.4835 15.2637ZM24.8243 34.6709C23.291 38.8336 20.4963 41.7025 16.9101 42.7713C11.9637 44.2339 6.69583 41.5056 4.22263 36.2179C2.88711 33.3771 1.92256 33.6303 14.3133 33.6303H25.1953L24.8243 34.6709ZM76.2668 34.249C75.8711 35.7397 74.684 37.8211 73.4226 39.2837C68.7978 44.5995 61.7491 44.4589 57.2479 38.9743C56.1103 37.5679 54.6263 34.6991 54.6263 33.9396C54.6263 33.7146 57.9899 33.6303 65.5331 33.6303H76.4152L76.2668 34.249ZM127.586 33.9396C127.586 34.7553 126.151 37.4836 124.989 38.918C121.328 43.3901 116.308 44.4027 111.51 41.6463C109.259 40.3525 106.662 36.8648 105.945 34.249L105.797 33.6303H116.679C124.222 33.6303 127.586 33.7146 127.586 33.9396ZM30.5622 42.6026C34.9892 46.9059 40.8754 47.7497 46.2175 44.8245C48.0476 43.812 51.5596 40.0431 52.1284 38.468C52.3015 37.9898 52.5241 37.5679 52.6231 37.5679C52.6973 37.5679 53.1177 38.2149 53.5134 39.0024C55.121 42.1244 58.7566 45.1339 62.1696 46.1465C67.6601 47.7497 74.1399 44.8245 77.3303 39.2555L78.2948 37.5679L79.2099 39.1149C80.9906 42.1807 83.7359 44.5995 86.7284 45.7808C89.0532 46.6809 93.3813 46.6809 95.533 45.7808C98.5998 44.487 101.394 41.9838 103.101 39.0305L103.917 37.5961L105.104 39.5087C105.747 40.5775 106.811 41.9557 107.479 42.6026C109.086 44.2058 112.054 45.8371 114.082 46.2871L115.739 46.6246L115.591 83.8639L114.651 86.0016C113.538 88.6173 111.658 90.6705 109.581 91.6268L108.171 92.2737H22.8458L21.4361 91.6268C19.779 90.8674 17.6026 88.7298 16.6875 86.9578C15.3273 84.314 15.3025 83.9765 15.3025 64.5411V46.6528L16.8359 46.2871C20.7683 45.4152 24.1319 42.6588 26.5556 38.3555L26.976 37.5679L28.1632 39.5087C28.8309 40.5493 29.8944 41.9557 30.5622 42.6026Z" fill="#FAFAFA"/>
<path d="M90.5549 55.8592C87.752 57.092 87.2688 61.2739 89.7334 63.0143C91.8839 64.5614 94.9526 63.812 96.0158 61.4673C96.6199 60.1378 96.5957 59.0017 95.9433 57.6963C94.9768 55.8109 92.5605 54.989 90.5549 55.8592Z" fill="#FAFAFA"/>
<path d="M99.0871 65.4324C96.2842 66.6652 95.8009 70.8471 98.2655 72.5876C100.416 74.1346 103.485 73.3852 104.548 71.0405C105.152 69.711 105.128 68.5749 104.475 67.2696C103.509 65.3841 101.093 64.5622 99.0871 65.4324Z" fill="#FAFAFA"/>
<path d="M81.7742 65.4324C78.9713 66.6652 78.488 70.8471 80.9526 72.5876C83.1031 74.1346 86.1719 73.3852 87.235 71.0405C87.8391 69.711 87.8149 68.5749 87.1625 67.2696C86.196 65.3841 83.7797 64.5622 81.7742 65.4324Z" fill="#FAFAFA"/>
<path d="M90.6771 74.9958C87.8742 76.2286 87.3909 80.4105 89.8556 82.1509C92.0061 83.698 95.0748 82.9486 96.138 80.6038C96.7421 79.2743 96.7179 78.1382 96.0655 76.8329C95.099 74.9474 92.6827 74.1256 90.6771 74.9958Z" fill="#FAFAFA"/>
<path d="M33.1594 55.6254C32.9615 55.8504 32.8626 57.1723 32.8626 59.7037V63.4445H29.5732C27.3473 63.4445 26.1849 63.557 25.9871 63.782C25.5666 64.2602 25.5666 73.3168 25.9871 73.795C26.1849 74.02 27.3473 74.1325 29.5732 74.1325H32.8626V77.9015C32.8626 80.7422 32.9368 81.7266 33.2088 81.9798C33.4314 82.2048 34.8906 82.2892 37.8338 82.2329L42.1371 82.1485L42.2855 74.1325H49.1858L49.4578 73.3731C49.8536 72.1918 49.6804 64.7102 49.26 64.007C48.9385 63.5008 48.617 63.4445 45.5749 63.4445H42.2608V59.7037C42.2608 57.1723 42.1619 55.8504 41.964 55.6254C41.7662 55.4004 40.4306 55.2878 37.5617 55.2878C34.6928 55.2878 33.3572 55.4004 33.1594 55.6254ZM41.0242 58.2411H35.7068L35.5584 66.5384H28.4108V72.7262H26.9269V64.8508H34.0992V56.5535H41.0242V58.2411Z" fill="#FAFAFA"/>
<path d="M55.516 77.845C54.9472 78.7451 55.0214 79.392 55.7386 80.2077C56.3569 80.9108 56.4063 80.9108 59.8441 80.8264C62.9603 80.7421 63.356 80.6858 63.6775 80.2077C64.1474 79.4482 64.1227 78.2388 63.5786 77.7044C63.1829 77.3106 62.5151 77.2263 59.4978 77.2263C56.0601 77.2263 55.8622 77.2544 55.516 77.845Z" fill="#FAFAFA"/>
<path d="M67.4115 77.7325C66.8922 78.3794 66.8674 79.4764 67.3373 80.2077C67.6589 80.6858 68.0546 80.7421 71.1707 80.8264C74.6084 80.9108 74.6579 80.9108 75.2762 80.2077C75.9934 79.392 76.0676 78.7451 75.4988 77.845C75.1525 77.2544 74.9547 77.2263 71.4675 77.2263C68.2277 77.2263 67.7578 77.2825 67.4115 77.7325Z" fill="#FAFAFA"/>
</svg>
